<?xml version="1.0" encoding="utf-8"?>
<svg version="1.1" xmlns="http://www.w3.org/2000/svg" xmlns:xlink="http://www.w3.org/1999/xlink" x="0px" y="0px"
	 viewBox="0 0 29.3 26.2" style="enable-background:new 0 0 29.3 26.2;" xml:space="preserve">
<style type="text/css">
	.st0{fill:none;}
	.st1{}
	.st2{fill:none;stroke:#818181;stroke-width:2;stroke-linecap:round;stroke-linejoin:round;stroke-miterlimit:10;}
</style>
<g id="Layer_1">
	<rect x="-17" y="-11.8" class="st0" width="64" height="49"/>
</g>
<g id="Capa_1">
	<g>
		<path class="st1" d="M29.3,18.6c0-1.9-1.2-3.6-3-4.3l-10.4-3.9l0-1.3c2-0.6,3.4-2.3,3.4-4.4c0-2.5-2.1-4.6-4.8-4.6
			c-1.3,0-3.1,1-4,2.4c-0.2,0.4-0.3,1.2-0.1,1.6c0.2,0.4,0.6,1,1,1h0c0.4,0,0.8-0.6,1-1c0.4-0.7,1.3-1.5,2-1.5
			c1.3,0,2.3,0.5,2.3,1.7c0,1.2-0.8,1.7-2,1.7c0,0-0.7,0.2-0.9,0.4c-0.2,0.2-0.5,1-0.5,1.3l0,2.5L2.9,14.3C1.1,14.9,0,16.7,0,18.6
			v0.7c0,2.1,1.6,3.8,3.8,3.8H4v-2H3.8c-0.8,0-1.8-1-1.8-1.8v-0.7c0-0.9,0.7-1.7,1.6-2.1l10.9-4l10.9,4c0.9,0.3,1.6,1.2,1.6,2.1v0.6
			c0,0.8-0.8,1.9-1.6,1.9H25v2h0.4c2.2,0,3.9-1.8,3.9-3.9L29.3,18.6z"/>
		<path class="st2" d="M25,24.2c0,0.6-0.4,1-1,1H5c-0.6,0-1-0.4-1-1v-4c0-0.6,0.4-1,1-1h19c0.6,0,1,0.4,1,1V24.2z"/>
	</g>
</g>
</svg>
