<?xml version="1.0" encoding="utf-8"?>

<svg version="1.1" id="Layer_1" xmlns="http://www.w3.org/2000/svg" xmlns:xlink="http://www.w3.org/1999/xlink" x="0px" y="0px"
	 viewBox="0 0 30.2 23.2" style="enable-background:new 0 0 30.2 23.2;" xml:space="preserve">

<rect x="-16.9" y="-12.9" class="st0" width="64" height="49"/>
<g>
	<line  x1="5.1" y1="10.1" x2="5.1" y2="13.1"/>
	<line  x1="25.1" y1="10.1" x2="25.1" y2="13.1"/>
	<path  d="M29.1,7.1c0,1.1-0.9,2-2.1,2H3.2c-1.1,0-2.1-0.9-2.1-2l0,0c0-1.1,0.9-2,2.1-2h23.9C28.2,5.1,29.1,6,29.1,7.1
		L29.1,7.1z"/>
	<path  d="M29.1,3.1c0,1.1-0.9,2-2,2h-24c-1.1,0-2-0.9-2-2v0c0-1.1,0.9-2,2-2h24C28.2,1.1,29.1,2,29.1,3.1L29.1,3.1z"/>
	<path  d="M29.1,17.1h-28v-0.5c0-2.1,1.7-3.5,3.4-3.5h21c1.8,0,3.6,1.2,3.6,3.3V17.1z"/>
	<rect x="3.1" y="17.1"  width="3" height="5"/>
	<rect x="24.1" y="17.1"  width="3" height="5"/>
</g>
</svg>
