<svg xmlns="http://www.w3.org/2000/svg" width="25" height="23" viewBox="0 0 25 23"><path fill="#424242" d="M13.12 22.51c.77-.6 3.47-2.8 5.96-5.62C22.35 13.2 24 9.82 24 6.9 24 3.1 21.03 0 17.38 0c-1.87 0-3.63.82-4.88 2.25A6.47 6.47 0 0 0 7.6 0C3.96 0 .99 3.1.99 6.9c0 2.92 1.66 6.29 4.92 10a47.62 47.62 0 0 0 5.97 5.61l.62.48zm-1.53-17.9l.9 1.69.9-1.7a4.53 4.53 0 0 1 4-2.45 4.66 4.66 0 0 1 4.55 4.75c0 2.34-1.51 5.29-4.38 8.54a45.05 45.05 0 0 1-5.06 4.85 45.1 45.1 0 0 1-5.07-4.85c-2.86-3.25-4.38-6.2-4.38-8.54a4.66 4.66 0 0 1 4.56-4.75c1.65 0 3.18.94 3.98 2.45z"/></svg>