<?xml version="1.0" encoding="utf-8"?>

<svg version="1.1" id="Layer_1" xmlns="http://www.w3.org/2000/svg" xmlns:xlink="http://www.w3.org/1999/xlink" x="0px" y="0px"
	 viewBox="0 0 24.5 26.8" style="enable-background:new 0 0 24.5 26.8;" xml:space="preserve">

<g>
	<path  d="M18.4,1.3H6.2c0,0-5,11.6-5,11.7c0,0.7,1.6,0.9,3.7,0.9c2,0,3.7-0.7,3.7-1.4c0,0.7,1.6,1.2,3.7,1.2
		c2,0,3.7-0.6,3.7-1.3c0,0.7,1.6,1.2,3.7,1.2c2,0,3.7,0.1,3.7-0.5L18.4,1.3z"/>
	<path  d="M12.2,25.6H6.4c-0.9,0-1.6-1.4-1.6-2.4c0-1,0.7-2.4,1.6-2.4l0,0C8.2,20.8,9,18.9,9,17c0-1.5-0.5-2.9-1.6-3.4"
		/>
	<path  d="M12.3,25.6h5.9c0.9,0,1.6-1.4,1.6-2.4c0-1-0.7-2.4-1.6-2.4l0,0c-1.8,0-2.7-1.9-2.7-3.8c0-1.5,0.5-2.9,1.6-3.4"
		/>
	<line class="st1" x1="14.4" y1="0.7" x2="15.9" y2="12.4"/>
	<line class="st1" x1="10.1" y1="0.7" x2="8.6" y2="12.4"/>
</g>
</svg>
