<?xml version="1.0" encoding="utf-8"?>

<svg version="1.1" id="Layer_1" xmlns="http://www.w3.org/2000/svg" xmlns:xlink="http://www.w3.org/1999/xlink" x="0px" y="0px"
	 viewBox="0 0 571 138.5" style="enable-background:new 0 0 571 138.5;" xml:space="preserve">

<g>
	<defs>
		<rect id="XMLID_1_" width="571" height="139"/>
	</defs>
	<clipPath id="XMLID_3_">
		<use xlink:href="#XMLID_1_"  style="overflow:visible;"/>
	</clipPath>
	<path class="st0" d="M46.8,41.9c1.3,0,2.4,0.4,3.3,1.2c0.9,0.9,1.4,2,1.4,3.3c0,1.4-0.5,2.4-1.4,3.3c-0.9,0.8-2,1.2-3.3,1.2
		c-1.4,0-2.4-0.4-3.3-1.2c-0.9-0.8-1.4-1.9-1.4-3.3c0-1.2,0.5-2.3,1.4-3.3C44.3,42.3,45.4,41.9,46.8,41.9z M42.7,96.9V57.7h8.5v39.3
		H42.7z"/>
	<path class="st0" d="M95.8,68.2c2.8,1.4,4.9,3.2,6.4,5.3c1.5,2.1,2.2,4.8,2.2,8c0,2.7-0.5,5-1.4,7c-0.9,1.9-2.2,3.5-3.9,4.8
		c-1.6,1.2-3.5,2.2-5.7,2.8c-2.2,0.6-4.5,0.9-7,0.9H61.9V42.8h23.5c2.3,0,4.4,0.3,6.3,0.8c1.9,0.5,3.6,1.4,5,2.5
		c1.4,1.1,2.5,2.6,3.3,4.4c0.8,1.8,1.2,3.9,1.2,6.3c0,4.5-1.8,8.1-5.3,10.9V68.2z M84.5,64.7c2.2,0,4-0.6,5.4-1.7
		c1.4-1.2,2.1-3.2,2.1-6.1c0-2.3-0.7-3.9-1.9-4.7C88.8,51.4,87,51,84.8,51H70.7v13.7H84.5z M70.7,72.9v15.9h15.8
		c3.3,0,5.7-0.7,7.2-2.2c1.5-1.4,2.3-3.4,2.3-6c0-2.8-0.7-4.7-2.2-5.9c-1.5-1.2-3.8-1.8-6.9-1.8H70.7z"/>
	<g class="st0">
		<path d="M71.1,136.9c-37.2,0-67.5-30.3-67.5-67.5c0-37.2,30.3-67.5,67.5-67.5c37.2,0,67.5,30.3,67.5,67.5
			C138.7,106.6,108.4,136.9,71.1,136.9z M71.1,10.4c-32.5,0-58.9,26.4-58.9,58.9c0,32.5,26.4,58.9,58.9,58.9
			c32.5,0,58.9-26.4,58.9-58.9C130,36.9,103.6,10.4,71.1,10.4z"/>
	</g>
	<path class="st0" d="M203.1,54.7c-1.6-1.8-3.4-3-5.5-3.6c-2.1-0.6-4.2-0.9-6.3-0.9c-3.3,0-6,0.4-8.3,1.2c-2.3,0.8-4.1,2.1-5.4,3.7
		c-1.4,1.6-2.4,3.6-3,6c-0.6,2.4-0.9,5.1-0.9,8.1v1.9c0,5.9,1.5,10.4,4.5,13.7c3,3.3,7.8,4.9,14.4,4.9c1.5,0,3-0.2,4.4-0.5
		c1.4-0.4,2.8-0.8,4.2-1.4V77.1h-9.9v-8.3h18.4v24.3c-2.5,1.4-5.4,2.5-8.5,3.4c-3.1,0.9-6.1,1.4-9.1,1.4c-4.2,0-8-0.6-11.4-1.8
		c-3.4-1.2-6.2-2.9-8.6-5.3c-2.3-2.3-4.1-5.1-5.4-8.5c-1.3-3.3-1.9-7.2-1.9-11.5v-1.8c0-4.1,0.6-7.8,1.7-11.2c1.1-3.4,2.8-6.2,5-8.6
		c2.2-2.4,5-4.2,8.3-5.5c3.3-1.3,7.1-1.9,11.5-1.9c3.4,0,6.7,0.6,10,1.7c3.2,1.1,6,3.1,8.3,5.8L203.1,54.7z"/>
	<path class="st0" d="M242.4,81.5l-5.7,15.4h-9.3l20.2-54.1h10.5l21.2,54.1h-9.1l-6-15.4H242.4z M245.1,73.9h16.3l-7.1-18.2
		l-1.2-3.4l-1.3,3.4L245.1,73.9z"/>
	<path class="st0" d="M306.8,42.8v46h23.9v8.2H298V42.8H306.8z"/>
	<path class="st0" d="M357.5,42.8v46h23.9v8.2h-32.7V42.8H357.5z"/>
	<path class="st0" d="M439,96.9h-39.6V42.8H439V51h-30.8v13.2h25.9v8.3h-25.9v16.4H439V96.9z"/>
	<path class="st0" d="M478.5,76.8c-0.6-0.7-1.3-1.2-2.2-1.6c-0.9-0.3-1.8-0.5-2.6-0.5h-5.1v22.2h-8.8V42.8h25.6
		c2.3,0,4.4,0.4,6.3,1.1c1.9,0.7,3.6,1.8,5,3.2c1.4,1.4,2.4,3,3.2,4.9c0.8,1.9,1.2,4,1.2,6.4c0,4.7-1.2,8.5-3.5,11.5
		c-2.4,3-5.7,4.6-10.1,4.9l10.3,13c0.8,1,1.6,1.7,2.3,2c0.7,0.3,1.7,0.5,3,0.5v6.7c-0.5,0.3-1.1,0.5-1.9,0.7c-0.7,0.2-1.4,0.3-2,0.3
		c-1.6,0-3-0.5-4.2-1.6c-1.2-1.1-2.3-2.2-3.2-3.3L478.5,76.8z M468.6,66.6h14.6c3.3,0,5.7-0.6,7-1.8c1.4-1.2,2-3.4,2-6.5
		c0-2.5-0.6-4.4-1.8-5.6c-1.2-1.2-3.3-1.8-6.3-1.8h-15.5V66.6z"/>
	<polygon class="st0" points="563.2,41.5 543.5,65.3 523.8,41.5 517.6,46.7 539,72.5 539,96.9 548,96.9 548,72.5 569.4,46.7 	"/>
</g>
</svg>
