<svg  version="1.1" id="Layer_1" xmlns="http://www.w3.org/2000/svg" xmlns:xlink="http://www.w3.org/1999/xlink" x="0px" y="0px"
   viewBox="0 0 24 25.9" style="enable-background:new 0 0 24 25.9;" xml:space="preserve">

<path class="st0" d="M15.2,25.2c-1-0.2-2.1-0.6-3.3-1.4c-2.6-1.6-4.8-3.4-7-6.7C2.6,13.9,1.6,11.2,1,8.2C0.5,5.5,0.9,3.3,2,2.5
  c0.2-0.1,0.3-0.2,0.5-0.4c1.1-0.8,2.3-1.6,3.6-1.3C7,1,7.8,1.8,8.5,3.1c2.1,3.8,0.7,4.8-1,5.9L7.2,9.2C6.9,9.3,5.7,9.5,9,14.2
  c1.1,1.5,2,2.7,2.8,3.5c0.5,0.5,0.8,0.4,1.3,0l0.3-0.2c1.6-1.1,3-2.1,5.9,1.1c1,1.1,1.4,2.1,1.2,3c-0.2,1.3-1.4,2.1-2.5,2.9
  c-0.2,0.1-0.4,0.2-0.5,0.3C17,25.3,16.1,25.4,15.2,25.2L15.2,25.2z M5.8,1.7C4.9,1.6,3.9,2.2,3,2.9C2.8,3,2.7,3.1,2.5,3.2
  C1.6,3.8,1.4,5.7,1.8,8.1c0.5,2.9,1.5,5.4,3.7,8.6c2.2,3.2,4.2,4.9,6.8,6.5c2.1,1.2,3.9,1.6,4.8,1.1c0.2-0.1,0.3-0.2,0.5-0.4
  c1-0.6,2-1.3,2.2-2.3c0.1-0.7-0.3-1.5-1.1-2.4c-2.4-2.7-3.3-2.1-4.8-1l-0.3,0.2c-0.7,0.5-1.1,1-2.3-0.1c-0.8-0.8-1.8-2-2.9-3.6
  c-2.7-3.9-2.9-5.3-1.6-6.2L7,8.3c1.5-1.1,2.5-1.6,0.7-4.8C7.2,2.4,6.6,1.9,5.8,1.7C5.9,1.8,5.9,1.8,5.8,1.7L5.8,1.7z M5.9,1.6"/>
<path class="st0" d="M18.4,12.3c-0.1,0-0.1,0-0.1-0.1c-0.2-0.1-0.2-0.4-0.1-0.6c0.7-1.1,0.7-2.6-0.1-3.7c-0.8-1.1-2.2-1.7-3.6-1.3
  C14.2,6.7,14,6.6,14,6.4c-0.1-0.2,0.1-0.4,0.3-0.5c1.7-0.4,3.5,0.3,4.4,1.7c1,1.4,1,3.2,0.1,4.6C18.7,12.3,18.5,12.3,18.4,12.3
  L18.4,12.3z M18.4,12.3"/>
<path class="st0" d="M21.6,14.4c-0.1,0-0.1,0-0.1-0.1c-0.2-0.1-0.2-0.4-0.1-0.5c1.6-2.5,1.5-5.6-0.2-8c-1.7-2.5-4.8-3.6-7.7-2.9
  c-0.2,0-0.4-0.1-0.5-0.3c-0.1-0.2,0.1-0.4,0.3-0.5c3.2-0.8,6.6,0.5,8.5,3.2c1.8,2.7,1.9,6.1,0.2,8.9C21.9,14.3,21.8,14.4,21.6,14.4
  L21.6,14.4z M21.6,14.4"/>
</svg>
