<svg xmlns="http://www.w3.org/2000/svg" width="23" height="26" viewBox="0 0 23 26"><path d="M22.3 22a3 3 0 0 0-2.97-3.02H6.67c-.63 0-1.13-.51-1.13-1.15v-1.4c.35.14.74.22 1.13.22h13.32c1.65 0 3-1.37 3-3.05V7.87v-.11l-.09-.24-.25.1.21-.17c-.01-.04-.02-.05-.02-.03l-.05-.09-.04-.04-.06-.07-.24-.15-.12.24.05-.27a.38.38 0 0 0-.1-.03L22.23 7h-.02L5.54 4.67V2.52v-.1l-.01-.05v-.02l-.03-.1-.02-.08a.36.36 0 0 0-.03-.07l-.04-.07L5.4 2 5.37 2l-.22.14.2-.18-.23-.23-.02-.02-.06-.03L1.31.08a.95.95 0 0 0-.73 1.75l3.08 1.32v14.68c0 1.4.95 2.6 2.26 2.95A3 3 0 0 0 8.64 25a3 3 0 0 0 2.76-4.12h5.17A3.02 3.02 0 0 0 19.33 25a3 3 0 0 0 2.98-3zm-1.86-.01c0 .6-.5 1.1-1.1 1.1a1.1 1.1 0 0 1 0-2.22c.6 0 1.1.5 1.1 1.12zm-10.7 0c0 .6-.5 1.1-1.1 1.1a1.1 1.1 0 1 1 0-2.22c.6 0 1.1.5 1.1 1.12zM21.12 8.75v4.85c0 .63-.51 1.15-1.13 1.15H6.67c-.63 0-1.13-.52-1.13-1.15V6.58z"/></svg>