<?xml version="1.0" encoding="utf-8"?>

<svg version="1.1" id="Layer_1" xmlns="http://www.w3.org/2000/svg" xmlns:xlink="http://www.w3.org/1999/xlink" x="0px" y="0px"
	 viewBox="0 0 36.3 21.3" style="enable-background:new 0 0 36.3 21.3;" xml:space="preserve">

<g>
	<path  d="M26.4,7.1c0-1.4-0.6-2-1.4-2H11.2c-0.8,0-1.4,0.6-1.4,2l0,0c0,1.4,0.6,2,1.4,2h13.7
		C25.7,9.1,26.4,8.5,26.4,7.1L26.4,7.1z"/>
	<path  d="M6.8,11.7"/>
	<polyline  points="35.2,20.1 35.2,15.1 27.2,15.1 27.2,20.1 	"/>
	<path  d="M29.7,11.1h5.5v4h-8v-1.3C27.2,12.4,28.3,11.1,29.7,11.1z"/>
	<path  d="M6.8,11.1H1.2v4h8v-1.3C9.2,12.5,8.1,11.1,6.8,11.1z"/>
	<polyline  points="1.2,20.1 1.2,15.1 9.2,15.1 9.2,20.1 	"/>
	<path  d="M20.5,9.1c-0.4,1-0.7,1.9-0.7,3.2c0,0.4-0.3,3.2,1.3,4.4c0.5,0.4,1.3,1.2,1.3,1.8c0,0.6-0.5,1.6-1.2,1.6h-3h-3
		c-0.7,0-1.2-1-1.2-1.7c0-0.6,0.8-1.3,1.3-1.7c1.6-1.1,1.3-4,1.3-4.3c0-1.3-0.3-2.4-0.7-3.4H20.5z"/>
	<line  x1="1.2" y1="12.1" x2="1.2" y2="1.1"/>
	<line  x1="35.2" y1="12.1" x2="35.2" y2="1.1"/>
</g>
</svg>
