<svg xmlns="http://www.w3.org/2000/svg" width="22" height="13" viewBox="0 0 22 13"><path fill="#f4f3ef" d="M21.67 11.34l-.07-.13a10.97 10.97 0 0 0-2.13-2.39l-.03-.02v-.01l-.02-.01a13.4 13.4 0 0 1-.91-.88c-.23-.29-.29-.58-.16-.88.09-.22.42-.69 1-1.41l.73-.92c1.29-1.65 1.85-2.71 1.68-3.17l-.07-.1c-.04-.07-.16-.13-.34-.18a1.81 1.81 0 0 0-.72-.03l-3.22.02a.58.58 0 0 0-.22.01l-.15.03-.05.03-.05.03a.53.53 0 0 0-.12.11.9.9 0 0 0-.11.19 17.6 17.6 0 0 1-1.96 3.59c-.23.32-.42.57-.58.72-.15.16-.3.28-.42.37-.13.1-.23.14-.3.12l-.18-.04a.71.71 0 0 1-.25-.27c-.07-.11-.11-.25-.13-.42a4.6 4.6 0 0 1-.04-.95l.01-.45c0-.28 0-.57.02-.89l.03-.76.01-.6c0-.21-.01-.37-.04-.49a1.5 1.5 0 0 0-.12-.34.6.6 0 0 0-.23-.26c-.1-.06-.22-.11-.37-.15-.4-.08-.9-.13-1.5-.14a7.87 7.87 0 0 0-2.68.26c-.16.08-.3.19-.42.32-.14.16-.16.25-.06.26.45.07.76.22.95.47l.07.13a4.92 4.92 0 0 1 .26 1.28 8.17 8.17 0 0 1-.26 2.73c-.07.13-.11.21-.14.24l-.05.05c-.1.04-.2.05-.3.05a.73.73 0 0 1-.39-.15c-.14-.1-.3-.24-.46-.41a6.35 6.35 0 0 1-.54-.74c-.2-.32-.4-.69-.63-1.12l-.17-.32a30.26 30.26 0 0 1-.98-1.99.74.74 0 0 0-.26-.35l-.06-.03a1.12 1.12 0 0 0-.44-.16l-3.06.02c-.31 0-.52.07-.63.21l-.05.06a.34.34 0 0 0-.03.17c0 .08.02.18.06.3a35.36 35.36 0 0 0 2.83 5.2A25.8 25.8 0 0 0 5.2 9.76l.31.33.28.25a12.85 12.85 0 0 0 1.94 1.34c.42.23.91.42 1.47.57.56.14 1.1.2 1.63.18h1.29a.98.98 0 0 0 .59-.24l.04-.06a.65.65 0 0 0 .09-.2.96.96 0 0 0 .04-.29c-.01-.31.01-.59.07-.84.05-.24.12-.43.19-.56a1.2 1.2 0 0 1 .43-.47l.09-.04c.18-.06.39 0 .63.17s.47.37.68.62c.21.25.47.53.77.84.3.31.55.54.78.69l.22.13c.15.08.34.16.58.24.24.07.45.09.63.05l2.86-.04c.28 0 .5-.05.66-.14.15-.09.25-.19.28-.29a.82.82 0 0 0 0-.37 1.46 1.46 0 0 0-.08-.29z"/></svg>