<svg xmlns="http://www.w3.org/2000/svg" width="18" height="19" viewBox="0 0 18 19"><path fill="#ffc03f" d="M6.8 9.54s-1.61.26-2.54.28c-.92.02-2.2-.91-2.2-.91s-.19-.21-.9-.21c-.44 0-1.15.98-1.15 2.79a7 7 0 0 0 1.7 4.59 5.74 5.74 0 0 0 4.52 1.88c2.24 0 6.71.04 6.71.04s1.36.05 2.48-.75c1.11-.8 1.74-1.56 2.3-3.47.57-1.9-.91-3.63-3.56-6.29-1.17-1.17-1.46-3.06-.48-3.34.98-.28-.18-.39 1.06-.39.99 0 1.42-.07 1.66-.36l1.38-.02.21-.47-2.34-.17 1.08.05s.02-.65-.85-.66c-.87-.02-.72-.1-1.23-.29-.52-.2-.76-.21-.76-.21l-.21-.04S12.84.01 10.7.01c-1.33 0-3.37.58-3.37 3.87 0 1.89 1.99 3.43 2.01 4.18.01.75-.43.92-1.46 1.21l-1.05.28zm7.44-6.62c-.14-.07-.25-.15 0-.19z"/></svg>