<svg xmlns="http://www.w3.org/2000/svg" width="16" height="16" viewBox="0 0 16 16"><path fill="#fff" d="M1.94.09C1.1.09.43.77.43 1.59v11.97c0 .83.67 1.5 1.5 1.5h12.1a1.5 1.5 0 0 0 1.5-1.5V1.59c0-.82-.67-1.5-1.5-1.5zM11 7.58a3.02 3.02 0 0 1-6.04 0 3.02 3.02 0 0 1 6.04 0zm-8.68 5.98c-.23 0-.38-.15-.38-.37V6.83h1.58c-.07.22-.07.52-.07.75a4.52 4.52 0 0 0 9.06 0c0-.23 0-.53-.07-.75h1.58v6.36c0 .22-.15.37-.37.37zm11.7-10.1c0 .22-.15.37-.38.37h-1.5c-.23 0-.38-.15-.38-.37v-1.5c0-.22.15-.37.37-.37h1.51c.23 0 .38.15.38.37z"/></svg>