<svg xmlns="http://www.w3.org/2000/svg" width="24" height="24" viewBox="0 0 24 24"><path fill="#424242" d="M7.63 21.18c-.32 0-.63-.12-.87-.34L5.81 20l-.8.8c-.25.25-.57.37-.91.37-.35-.01-.67-.16-.9-.42l-.41-.45c-.13.13-.28.28-.4.43l-.27.3h-.41A1.7 1.7 0 0 1 0 19.33V1.71C0 .77.77 0 1.7 0h17.31c.94 0 1.7.76 1.7 1.7v4.07a.9.9 0 1 1-1.8 0V1.8H1.82v16.96c.6-.53.9-.53 1.07-.53h.01a1 1 0 0 1 .74.32l.52.57.55-.54c.3-.3.7-.44 1.1-.46.4 0 .79.15 1.08.44l.7.61.03-.03a.9.9 0 0 1 1.28-.07c.37.33.4.9.06 1.27l-.38.42c-.23.26-.57.42-.91.42h-.03zm9.22-15.22H4.1a.9.9 0 1 1 0-1.8h12.75a.9.9 0 1 1 0 1.8zm-7.89 4.28H4.1a.9.9 0 1 1 0-1.8h4.86a.9.9 0 1 1 0 1.8zm-2.03 4.28H4.1a.9.9 0 1 1 0-1.8h2.83a.9.9 0 1 1 0 1.8zM16.56 23a7.43 7.43 0 0 1-7.44-7.4 7.43 7.43 0 0 1 14.88 0c0 4.08-3.34 7.4-7.44 7.4zm0-13.02a5.63 5.63 0 0 0-5.64 5.62 5.63 5.63 0 0 0 11.28 0c0-3.1-2.53-5.62-5.64-5.62zm-1.12 1.66a.9.9 0 1 1 1.8 0v3.97h1.67a.9.9 0 1 1 0 1.8h-2.57a.9.9 0 0 1-.9-.9z"/></svg>