<?xml version="1.0" encoding="utf-8"?>
<!-- Generator: Adobe Illustrator 19.1.0, SVG Export Plug-In . SVG Version: 6.00 Build 0)  -->
<svg version="1.1" id="Layer_1" xmlns="http://www.w3.org/2000/svg" xmlns:xlink="http://www.w3.org/1999/xlink" x="0px" y="0px"
	 viewBox="0 0 30.6 26.7" style="enable-background:new 0 0 30.6 26.7;" xml:space="preserve">
<style type="text/css">
	.st0{fill:none;stroke:#818181;stroke-width:2;stroke-linecap:round;stroke-linejoin:round;stroke-miterlimit:10;}
</style>
<g>
	<rect x="7.3" y="18.5" class="st0" width="16" height="7"/>
	<rect x="7.3" y="14.5" class="st0" width="16" height="4"/>
	<path class="st0" d="M7.3,11.4c0-1.6-1.2-2.9-2.9-2.9s-3,1.3-3,2.9c0,1.4,1.1,2.8,2.4,3.1l0,10.9h3.4C7.3,25.5,7.3,11.5,7.3,11.4z"
		/>
	<path class="st0" d="M23.3,11.4c0-1.6,1.2-2.9,2.9-2.9s3,1.3,3,2.9c0,1.4-1.1,2.8-2.4,3.1l0,10.9h-3.5
		C23.3,25.5,23.3,11.5,23.3,11.4z"/>
	<g>
		<path class="st0" d="M25.1,8.6c-1.5-4.6-5.2-6.9-9.7-6.9S7.3,4,5.8,8.4"/>
	</g>
</g>
</svg>
